<?xml version="1.0" standalone="no"?>
<!DOCTYPE svg PUBLIC "-//W3C//DTD SVG 20010904//EN"
 "http://www.w3.org/TR/2001/REC-SVG-20010904/DTD/svg10.dtd">
<svg version="1.0" xmlns="http://www.w3.org/2000/svg"
 width="512.000000pt" height="512.000000pt" viewBox="0 0 512.000000 512.000000"
 preserveAspectRatio="xMidYMid meet">
<metadata>
Created by potrace 1.11, written by Peter Selinger 2001-2013
</metadata>
<g transform="translate(0.000000,512.000000) scale(0.100000,-0.100000)"
fill="#000000" stroke="none">
<path d="M0 2560 l0 -2560 2560 0 2560 0 0 2560 0 2560 -2560 0 -2560 0 0
-2560z m2839 1606 c293 -38 443 -100 596 -251 179 -176 258 -385 258 -685 0
-167 -16 -265 -67 -388 -75 -186 -250 -362 -449 -451 -156 -70 -297 -94 -629
-107 l-178 -6 0 -694 0 -694 -320 0 -320 0 0 1643 c0 904 3 1647 8 1651 14 15
965 -1 1101 -18z"/>
<path d="M2370 3235 l0 -338 218 6 c284 7 345 24 426 119 47 54 66 115 66 208
0 93 -19 154 -66 209 -82 95 -169 120 -446 128 l-198 6 0 -338z"/>
</g>
</svg>
