<?xml version="1.0" standalone="no"?>
<!DOCTYPE svg PUBLIC "-//W3C//DTD SVG 20010904//EN"
 "http://www.w3.org/TR/2001/REC-SVG-20010904/DTD/svg10.dtd">
<svg version="1.0" xmlns="http://www.w3.org/2000/svg"
 width="512.000000pt" height="512.000000pt" viewBox="0 0 512.000000 512.000000"
 preserveAspectRatio="xMidYMid meet">
<metadata>
Created by potrace 1.11, written by Peter Selinger 2001-2013
</metadata>
<g transform="translate(0.000000,512.000000) scale(0.100000,-0.100000)"
fill="#000000" stroke="none">
<path d="M0 2560 l0 -2560 2560 0 2560 0 0 2560 0 2560 -2560 0 -2560 0 0
-2560z m4555 1641 c126 -18 240 -102 297 -219 l33 -67 0 -1260 0 -1260 -27
-57 c-35 -76 -104 -148 -181 -189 l-62 -34 -947 -3 -948 -2 0 -155 0 -155 424
0 c269 0 434 -4 453 -10 42 -15 53 -47 53 -155 0 -85 -2 -97 -24 -122 l-24
-28 -1014 -3 c-681 -2 -1025 0 -1049 7 -48 14 -59 43 -59 151 0 103 11 135 53
150 19 6 184 10 453 10 l424 0 0 155 0 155 -947 2 -948 3 -48 24 c-76 38 -152
113 -189 189 l-33 67 0 1260 0 1260 27 58 c54 116 176 210 293 227 71 11 3918
11 3990 1z"/>
<path d="M604 3890 c-12 -5 -29 -19 -38 -32 -14 -20 -16 -135 -16 -1204 0
-1180 0 -1181 21 -1208 l20 -26 1974 0 1974 0 20 27 21 26 -2 1188 -3 1188
-23 23 -23 23 -1952 2 c-1087 1 -1961 -2 -1973 -7z"/>
</g>
</svg>
