<?xml version="1.0" standalone="no"?>
<!DOCTYPE svg PUBLIC "-//W3C//DTD SVG 20010904//EN"
 "http://www.w3.org/TR/2001/REC-SVG-20010904/DTD/svg10.dtd">
<svg version="1.0" xmlns="http://www.w3.org/2000/svg"
 width="512.000000pt" height="512.000000pt" viewBox="0 0 512.000000 512.000000"
 preserveAspectRatio="xMidYMid meet">
<metadata>
Created by potrace 1.11, written by Peter Selinger 2001-2013
</metadata>
<g transform="translate(0.000000,512.000000) scale(0.100000,-0.100000)"
fill="#000000" stroke="none">
<path d="M0 2560 l0 -2560 2560 0 2560 0 0 2560 0 2560 -2560 0 -2560 0 0
-2560z m2935 2231 c263 -43 439 -101 675 -221 572 -292 1001 -829 1160 -1449
97 -380 91 -821 -16 -1195 -228 -794 -876 -1405 -1684 -1590 -221 -50 -569
-64 -810 -32 -469 63 -915 279 -1259 611 -313 301 -528 668 -630 1074 -51 204
-65 324 -65 561 0 237 14 361 64 560 157 628 596 1177 1178 1469 263 132 486
195 832 235 91 11 440 -4 555 -23z"/>
<path d="M1947 3680 c-44 -14 -92 -55 -113 -97 -18 -36 -19 -77 -19 -1023 0
-542 3 -997 8 -1013 13 -46 72 -103 122 -117 81 -23 107 -12 387 153 145 85
511 299 813 477 303 177 565 334 584 348 95 70 91 229 -7 295 -20 14 -403 240
-851 502 -854 502 -849 499 -924 475z"/>
</g>
</svg>
