<?xml version="1.0" standalone="no"?>
<!DOCTYPE svg PUBLIC "-//W3C//DTD SVG 20010904//EN"
 "http://www.w3.org/TR/2001/REC-SVG-20010904/DTD/svg10.dtd">
<svg version="1.0" xmlns="http://www.w3.org/2000/svg"
 width="16.000000pt" height="16.000000pt" viewBox="0 0 16.000000 16.000000"
 preserveAspectRatio="xMidYMid meet">
<metadata>
Created by potrace 1.11, written by Peter Selinger 2001-2013
</metadata>
<g transform="translate(0.000000,16.000000) scale(0.003125,-0.003125)"
fill="#000000" stroke="none">
<path d="M460 4999 c0 -6 -9 -9 -20 -6 -11 3 -20 1 -20 -5 0 -5 -5 -6 -10 -3
-6 3 -13 -1 -16 -9 -3 -9 -9 -14 -13 -11 -4 2 -24 -7 -44 -20 -20 -14 -41 -25
-48 -25 -7 0 -10 -3 -6 -6 3 -3 -10 -22 -29 -42 -18 -19 -46 -61 -60 -91 -15
-31 -31 -64 -36 -75 -7 -14 -6 -16 4 -11 10 6 11 5 1 -6 -10 -10 -13 -445 -13
-2106 0 -1151 4 -2093 8 -2093 4 0 9 -12 10 -27 1 -15 6 -31 11 -36 5 -5 7
-16 4 -23 -3 -8 0 -14 6 -14 6 0 18 -14 26 -31 23 -44 145 -161 145 -138 0 6
7 3 16 -5 8 -9 20 -14 25 -11 5 4 9 3 9 -2 0 -31 71 -32 2178 -33 1393 0 2101
3 2097 10 -3 6 5 10 19 10 14 0 28 5 31 10 4 6 11 8 16 5 5 -4 9 -1 9 4 0 6 9
11 20 11 10 0 24 8 29 18 6 9 11 14 11 10 0 -12 90 79 90 91 0 6 5 11 10 11 6
0 10 6 10 14 0 8 4 16 10 18 5 2 11 12 13 23 1 11 7 27 12 35 5 8 12 22 14 30
11 32 11 4220 0 4220 -5 0 -8 4 -5 9 4 5 1 22 -6 38 -6 15 -12 32 -12 36 -1 4
-5 11 -11 15 -5 4 -11 14 -13 22 -2 8 -8 17 -13 18 -5 2 -9 8 -9 12 0 14 -75
90 -88 90 -7 0 -12 5 -12 10 0 6 -7 10 -15 10 -8 0 -15 5 -15 11 0 5 -5 7 -10
4 -6 -3 -13 0 -16 9 -3 8 -14 13 -25 11 -10 -2 -19 0 -19 5 0 4 -11 7 -25 5
-14 -1 -28 2 -31 6 -8 14 -4194 11 -4194 -2z"/>
</g>
</svg>
