<?xml version="1.0" standalone="no"?>
<!DOCTYPE svg PUBLIC "-//W3C//DTD SVG 20010904//EN"
 "http://www.w3.org/TR/2001/REC-SVG-20010904/DTD/svg10.dtd">
<svg version="1.0" xmlns="http://www.w3.org/2000/svg"
 width="512.000000pt" height="512.000000pt" viewBox="0 0 512.000000 512.000000"
 preserveAspectRatio="xMidYMid meet">
<metadata>
Created by potrace 1.11, written by Peter Selinger 2001-2013
</metadata>
<g transform="translate(0.000000,512.000000) scale(0.100000,-0.100000)"
fill="#000000" stroke="none">
<path d="M3751 5109 c-40 -16 -213 -170 -875 -778 -159 -146 -294 -266 -301
-266 -7 0 -108 88 -226 196 -306 281 -398 358 -437 365 -115 22 -212 -51 -212
-158 0 -47 3 -53 63 -115 34 -36 169 -166 300 -289 131 -122 239 -226 240
-231 1 -4 -362 -10 -808 -13 -808 -5 -810 -5 -870 -28 -121 -45 -244 -152
-296 -258 -22 -44 -32 -84 -39 -150 -5 -49 -10 -535 -10 -1088 l0 -1000 41
-85 c69 -143 184 -239 338 -285 49 -14 233 -16 1916 -16 1683 0 1867 2 1916
16 149 44 268 142 333 274 l36 75 -2 1095 -3 1095 -32 65 c-54 111 -174 216
-298 262 l-60 23 -800 3 c-440 1 -806 5 -813 7 -15 6 22 41 508 490 437 404
581 541 602 574 27 39 23 109 -7 153 -42 62 -138 94 -204 67z m-1036 -1619
c429 -19 602 -66 730 -201 148 -155 192 -404 182 -1022 -4 -217 -10 -356 -21
-427 -60 -399 -223 -543 -666 -591 -176 -19 -1422 -20 -1599 -1 -321 34 -507
125 -589 288 -92 183 -106 287 -107 814 0 445 6 531 46 680 90 332 285 437
854 460 269 10 931 11 1170 0z m1676 -507 c153 -83 177 -286 47 -398 -138
-117 -369 -68 -439 93 -54 123 18 276 151 323 77 27 172 20 241 -18z m0 -650
c60 -33 112 -99 130 -166 25 -94 -30 -204 -131 -261 -50 -28 -63 -31 -140 -31
-95 0 -141 18 -199 76 -43 43 -62 82 -68 144 -17 159 110 280 283 272 57 -3
83 -10 125 -34z"/>
</g>
</svg>
