<?xml version="1.0" standalone="no"?>
<!DOCTYPE svg PUBLIC "-//W3C//DTD SVG 20010904//EN"
 "http://www.w3.org/TR/2001/REC-SVG-20010904/DTD/svg10.dtd">
<svg version="1.0" xmlns="http://www.w3.org/2000/svg"
 width="16.000000pt" height="16.000000pt" viewBox="0 0 16.000000 16.000000"
 preserveAspectRatio="xMidYMid meet">
<metadata>
Created by potrace 1.11, written by Peter Selinger 2001-2013
</metadata>
<g transform="translate(0.000000,16.000000) scale(0.003125,-0.003125)"
fill="#000000" stroke="none">
<path d="M418 4985 c-119 -48 -197 -127 -244 -247 l-24 -62 0 -2086 0 -2086
24 -62 c48 -122 126 -200 248 -248 l62 -24 2086 0 2086 0 62 24 c122 48 200
126 248 248 l24 62 0 2086 0 2086 -24 62 c-48 122 -126 200 -248 248 l-62 24
-2090 -1 -2091 -1 -57 -23z m1916 -1026 c156 -29 295 -87 431 -179 101 -68
230 -208 285 -308 71 -131 56 -123 147 -75 98 52 148 65 242 64 143 -2 269
-52 366 -147 94 -93 155 -234 155 -359 0 -66 -24 -175 -50 -226 -23 -44 -20
-48 57 -77 109 -41 187 -93 280 -188 102 -103 153 -192 194 -339 31 -110 31
-276 0 -390 -70 -254 -261 -458 -499 -535 -127 -40 -172 -41 -1382 -38 l-1165
3 -85 24 c-166 46 -285 115 -409 239 -175 173 -250 347 -259 598 -7 204 37
364 144 525 85 127 165 203 295 279 30 18 57 37 61 44 4 6 8 55 8 108 0 183
54 361 159 523 57 89 204 236 298 299 84 56 224 118 303 134 30 6 75 15 100
20 65 14 254 14 324 1z"/>
<path d="M2039 2893 c-197 -197 -360 -367 -363 -379 -4 -13 1 -30 13 -45 19
-24 21 -24 253 -29 l233 -5 3 -354 c2 -313 4 -357 19 -373 15 -16 36 -18 228
-18 185 0 214 2 226 17 11 13 15 91 19 372 l5 356 225 5 c153 3 232 9 247 17
27 16 37 46 24 70 -5 10 -169 177 -363 371 -304 303 -358 352 -383 352 -25 0
-79 -50 -386 -357z"/>
</g>
</svg>
