<?xml version="1.0" standalone="no"?>
<!DOCTYPE svg PUBLIC "-//W3C//DTD SVG 20010904//EN"
 "http://www.w3.org/TR/2001/REC-SVG-20010904/DTD/svg10.dtd">
<svg version="1.0" xmlns="http://www.w3.org/2000/svg"
 width="512.000000pt" height="512.000000pt" viewBox="0 0 512.000000 512.000000"
 preserveAspectRatio="xMidYMid meet">
<metadata>
Created by potrace 1.11, written by Peter Selinger 2001-2013
</metadata>
<g transform="translate(0.000000,512.000000) scale(0.100000,-0.100000)"
fill="#000000" stroke="none">
<path d="M2398 5115 c-2 -1 -43 -6 -93 -10 -49 -4 -92 -8 -95 -10 -3 -2 -30
-6 -60 -10 -30 -3 -75 -11 -100 -17 -25 -5 -56 -12 -70 -14 -71 -14 -320 -92
-334 -105 -6 -5 -16 -9 -24 -9 -22 0 -251 -111 -347 -168 -88 -53 -252 -163
-296 -199 -195 -160 -356 -328 -491 -513 -233 -321 -402 -725 -453 -1085 -3
-16 -7 -41 -10 -54 -11 -59 -20 -210 -19 -371 0 -181 7 -280 28 -415 14 -85
18 -103 42 -200 14 -55 27 -107 29 -115 2 -8 15 -46 28 -85 110 -313 263 -583
472 -834 115 -138 219 -237 419 -398 35 -28 240 -160 301 -193 106 -59 239
-122 315 -149 19 -7 44 -17 55 -23 12 -5 27 -10 35 -12 8 -1 47 -13 85 -25 39
-12 81 -25 95 -27 14 -3 50 -11 80 -19 54 -13 84 -18 165 -31 22 -3 60 -10 85
-14 48 -9 641 -7 675 2 11 3 40 9 65 13 103 16 98 15 220 44 86 21 254 75 322
105 21 9 39 16 40 15 2 -1 23 9 48 22 25 13 47 24 50 24 6 1 150 77 206 108
42 25 210 136 241 161 196 158 336 292 438 421 22 28 43 52 46 55 3 3 32 43
65 90 189 268 317 544 394 850 16 65 33 135 36 157 3 21 12 74 19 118 10 58
13 166 11 390 -4 352 -9 394 -91 700 -51 191 -179 466 -312 670 -60 91 -176
247 -213 286 -8 8 -38 40 -66 70 -63 67 -175 173 -233 219 -24 19 -48 40 -55
45 -65 60 -296 205 -434 274 -255 128 -549 219 -797 247 -33 3 -69 8 -80 11
-23 5 -432 13 -437 8z m335 -429 c45 -4 98 -9 117 -12 182 -28 311 -61 461
-118 118 -45 308 -137 374 -182 20 -13 38 -24 41 -24 3 0 58 -39 122 -86 107
-80 382 -343 382 -366 0 -5 9 -19 21 -31 87 -92 265 -420 333 -612 33 -94 75
-246 81 -290 2 -21 15 -97 21 -130 7 -37 17 -179 17 -260 1 -176 -22 -374 -60
-520 -8 -33 -16 -64 -17 -70 -14 -68 -68 -208 -138 -355 -187 -393 -494 -725
-863 -930 -274 -153 -588 -253 -870 -276 -163 -13 -414 -4 -535 21 -14 2 -41
7 -60 10 -19 3 -43 8 -52 11 -9 3 -25 7 -35 9 -261 54 -604 221 -848 414 -80
62 -266 246 -310 306 -17 22 -36 46 -43 54 -16 17 -162 237 -162 245 0 3 -13
27 -28 53 -15 26 -47 93 -71 148 -23 55 -46 109 -51 120 -7 16 -30 86 -35 105
-1 3 -5 12 -8 20 -10 24 -45 170 -56 235 -10 58 -14 90 -26 185 -12 92 -6 386
9 475 3 17 10 57 15 90 6 33 13 70 16 83 3 12 7 32 10 43 15 71 67 229 103
314 39 94 175 353 192 365 3 3 16 22 29 43 13 21 28 43 35 50 6 6 23 28 36 47
70 100 260 288 386 382 348 258 731 405 1134 434 47 4 86 7 87 8 4 3 164 -2
246 -8z"/>
<path d="M2375 4189 c-291 -53 -495 -158 -695 -359 -119 -119 -230 -272 -230
-317 1 -56 -5 -51 293 -276 71 -53 132 -98 138 -98 68 -9 83 -1 164 94 100
117 190 203 248 235 182 103 419 97 594 -17 132 -86 184 -194 149 -314 -27
-94 -96 -142 -420 -292 -72 -34 -219 -132 -263 -175 -75 -74 -125 -179 -148
-310 -16 -88 -17 -356 -2 -385 30 -58 53 -61 377 -60 268 0 287 2 312 20 37
27 45 55 47 154 1 67 5 89 23 115 40 59 107 111 253 194 33 19 75 43 93 53
152 88 307 225 377 334 37 57 77 158 90 225 13 68 17 265 6 320 -26 136 -32
153 -88 265 -126 249 -475 511 -774 579 -35 8 -77 18 -94 22 -16 4 -102 8
-190 9 -121 2 -184 -2 -260 -16z"/>
<path d="M2275 1642 c-34 -7 -64 -33 -74 -65 -6 -19 -9 -149 -8 -324 l2 -293
28 -27 27 -28 298 -3 c186 -2 309 1 325 7 15 6 35 24 46 41 17 28 18 56 19
313 0 160 -4 296 -10 315 -19 62 -39 66 -353 67 -154 0 -289 -1 -300 -3z"/>
</g>
</svg>
